<svg width="1200" height="630" viewBox="0 0 1200 630" fill="none" xmlns="http://www.w3.org/2000/svg">
  <rect width="1200" height="630" fill="#0B1120"/>
  <rect width="1200" height="630" fill="url(#paint0_radial)" fill-opacity="0.55"/>
  <rect x="84" y="84" width="1032" height="462" rx="36" fill="white" fill-opacity="0.04" stroke="white" stroke-opacity="0.08"/>
  <text x="140" y="220" fill="white" font-size="72" font-family="Arial, sans-serif" font-weight="700">Invoicezy</text>
  <text x="140" y="308" fill="#C7D2FE" font-size="36" font-family="Arial, sans-serif">Create invoices. Track payments. Grow your business.</text>
  <rect x="140" y="372" width="300" height="70" rx="20" fill="url(#paint1_linear)"/>
  <text x="290" y="417" text-anchor="middle" fill="white" font-size="26" font-family="Arial, sans-serif" font-weight="700">GST + UPI + Reports</text>
  <rect x="760" y="154" width="250" height="320" rx="28" fill="#111827" stroke="rgba(255,255,255,0.08)"/>
  <text x="800" y="210" fill="#94A3B8" font-size="18" font-family="Arial, sans-serif">Invoice #INV-2026</text>
  <text x="800" y="264" fill="white" font-size="52" font-family="Arial, sans-serif" font-weight="700">₹45,000</text>
  <rect x="800" y="296" width="96" height="36" rx="18" fill="#14532D"/>
  <text x="848" y="319" text-anchor="middle" fill="#86EFAC" font-size="16" font-family="Arial, sans-serif" font-weight="700">PAID</text>
  <rect x="800" y="360" width="170" height="18" rx="9" fill="#334155"/>
  <rect x="800" y="392" width="130" height="18" rx="9" fill="#334155"/>
  <rect x="800" y="432" width="150" height="18" rx="9" fill="#4F46E5"/>
  <defs>
    <radialGradient id="paint0_radial" cx="0" cy="0" r="1" gradientUnits="userSpaceOnUse" gradientTransform="translate(822 112) rotate(129.182) scale(680.503 929.075)">
      <stop stop-color="#4F46E5"/>
      <stop offset="1" stop-color="#0B1120" stop-opacity="0"/>
    </radialGradient>
    <linearGradient id="paint1_linear" x1="140" y1="372" x2="440" y2="442" gradientUnits="userSpaceOnUse">
      <stop stop-color="#4F46E5"/>
      <stop offset="1" stop-color="#06B6D4"/>
    </linearGradient>
  </defs>
</svg>

